<svg xmlns="http://www.w3.org/2000/svg" viewBox="0 0 1895.72 1895.72"><defs><style>.cls-1{fill:#1a78b4;}.cls-1,.cls-2,.cls-4{stroke:#fff;stroke-miterlimit:10;stroke-width:21px;}.cls-2{fill:#43aa66;}.cls-3{fill:#fff;}.cls-4{fill:none;}</style></defs><g id="Lag_2" data-name="Lag 2"><g id="TrøjborgBryg_Logo" data-name="TrøjborgBryg Logo"><g id="logo"><circle class="cls-1" cx="947.86" cy="947.86" r="937.36"/><g id="flower"><ellipse class="cls-2" cx="935.54" cy="1232.4" rx="215.1" ry="187.81" transform="translate(-353.92 1996.2) rotate(-86.35)"/><ellipse class="cls-2" cx="760.35" cy="1087.21" rx="215.1" ry="187.81" transform="translate(-245.74 130.99) rotate(-14.35)"/><ellipse class="cls-2" cx="844.29" cy="875.73" rx="187.81" ry="215.1" transform="translate(-337.56 496.31) rotate(-32.35)"/><ellipse class="cls-2" cx="1071.36" cy="890.21" rx="215.1" ry="187.81" transform="translate(-297.7 1055.7) rotate(-50.35)"/><ellipse class="cls-2" cx="1127.75" cy="1110.65" rx="187.81" ry="215.1" transform="translate(-320.61 1657.71) rotate(-68.35)"/></g><path class="cls-3" d="M425.21,578.23c-10-3.37-17-6.13-26.7-5.09-6.58.71-9.45,2.49-17.16,13.25L369,603.69,474,679c18.14,13,21.34,12.1,35.88-2.39l3.38,2.42-44.77,62.46-3.38-2.42c7.67-17.82,8.7-20.6-9.87-33.91L350.19,629.86l-13.76,19.2c-6.51,9.07-6,13.27-4.95,18.49,1.44,6.46,6.82,15.43,13.24,23.86L342.15,695c-10.64-9.22-24-20.41-34.48-28.55l2.12-3c7.21-.26,9.63-3.64,13.86-9.54l60.66-84.62c3.93-5.48,5.56-9.1,4.58-16.19l2-2.75c9.49,6.81,24.83,17.49,36.35,24.15Z" transform="translate(0 -91.38)"/><path class="cls-3" d="M661.21,548.47l-9,7.41c-24.91,18.75-35.12,19.4-50.67,14.36-15.92-5.08-31.36-11.22-48-18.39-11.33-4.81-16.32-4.75-23.14.85l-3,2.47,29,35.33c13.83,16.86,16.35,17.48,33.84,8.5l2.64,3.22-56.61,46.42-2.64-3.21C545.8,630,546,627.84,531.85,610.58L465.5,529.69c-13.83-16.87-16.84-18.09-33.67-8.31l-2.63-3.21,54-44.29c16.46-13.5,28-19.93,41-20.85,11.91-1,23.07,3.57,31.47,13.8,16.63,20.28,8.58,42,2,54.43,7.45,3,33.24,12.7,46.27,17.12,17.67,6,23.57,7.86,32.27,9.46,9.06,1.63,13.35,1.14,23.32-2.68Zm-133.62-1.21c9.64-7.91,16-14.47,17-23,1.34-9.83-2-18.83-11.56-30.47C514,470.46,495.41,471.58,484,481c-4.22,3.45-6.7,6.16-7.08,8.15-.58,2.16-.23,4.22,3.06,8.23l43.63,53.2Z" transform="translate(0 -91.38)"/><path class="cls-3" d="M665.9,360.1c42.39-17.74,91.53.81,111,47.27,21,50.05-.52,97.6-44.83,116.14-46.46,19.44-93.58-3-112.13-47.35C603.48,436.88,612,382.65,665.9,360.1Zm-2.48,7.51c-23.47,9.82-33.43,38.47-12.28,89,20.64,49.33,51.77,72.61,82.91,59.58,23.71-9.93,31.55-41.63,11.9-88.57C724,375.18,692.88,355.28,663.42,367.61ZM716,335.77l6.29,1.59L678.93,551.93l-6.5-2.06Z" transform="translate(0 -91.38)"/><path class="cls-3" d="M865.55,315.26c-16.65,5.93-18.44,7.8-14.65,30.6l14.59,87.84c5.24,31.5,7,53.05-7.54,71.78-10,12.71-22.76,19.83-33.6,24.27l-1.92-3.63c12-8.58,19.68-19.33,17.3-43.14-1.53-15.54-2.59-23.52-5.87-43.24l-14.72-88.61c-3.83-23-6.9-24.11-25.81-23.87l-.68-4.09,72.22-12Z" transform="translate(0 -91.38)"/><path class="cls-3" d="M991,383.36c27.85,5.46,48.87,20,47.93,45.18-.7,18.93-10.78,31.55-24.56,38.83s-32.84,9.69-52.56,8.95l-63-2.35.16-4.15c18.54-2.68,20.95-4.67,21.78-27l4-105.85c.84-22.57-1.74-23.19-19.76-27.5l.15-4.15,72.64,2.71c21.54.8,32.58,4.33,41.69,10.9,8.84,6.57,13.68,16.1,13.24,28C1031.78,370.59,1009.6,380.16,991,383.36Zm-38.17,62.23c-.67,17.9,6.11,24.13,20.64,24.67,16.08.6,28.55-13.22,29.58-41,1-25.95-8.62-40.59-37.67-41.68L955,387.22Zm13.3-64.19c23.35.87,32.28-8.67,33.08-30.2,1-27-12.41-36.58-27.45-37.14-4.42-.16-9.36.17-11.51,1.91-2.4,1.73-2.8,5.61-3.07,12.62l-2,52.4Z" transform="translate(0 -91.38)"/><path class="cls-3" d="M1187.64,344.12c43.47,14.9,68.11,61.5,51.77,109.14-17.6,51.32-65.24,72.59-109.69,57.34-47.64-16.34-68.89-64.79-53.31-110.22C1090.81,358.38,1135.83,326.34,1187.64,344.12Zm-7,4.45c-24.07-8.25-50.5,9.58-67.17,58.2-15.75,45.92-9.38,88.18,22.54,99.12,24.56,8.43,49.76-10.65,66.1-58.29C1219.7,396.28,1210.83,358.93,1180.63,348.57Z" transform="translate(0 -91.38)"/><path class="cls-3" d="M1346.69,634.13l-9.52-6.76c-24.65-19.1-28-28.78-27.19-45.11.71-16.69,2.56-33.2,5.11-51.14,1.66-12.19.29-17-6.91-22.1l-3.17-2.25L1278.55,544c-12.63,17.78-12.56,20.37.7,34.88l-2.41,3.39-59.69-42.39,2.41-3.39c18.07,7.74,20.24,7.37,33.17-10.83l60.58-85.3c12.63-17.78,13-21-.85-34.68l2.41-3.38,56.94,40.44c17.35,12.33,26.58,21.75,30.9,34.05,4.13,11.21,2.63,23.2-5,34-15.18,21.37-38.25,19.32-52,16.25-.88,8-3.49,35.41-4.33,49.14-1.13,18.63-1.39,24.81-.64,33.63.81,9.17,2.42,13.18,8.72,21.79Zm-34-129.22c10.16,7.21,18.17,11.63,26.71,10.37,9.83-1.3,17.63-6.9,26.35-19.18,17.44-24.55,11.48-42.16-.59-50.73-4.44-3.16-7.71-4.84-9.73-4.68-2.23,0-4.13.89-7.14,5.12l-39.84,56.09Z" transform="translate(0 -91.38)"/><path class="cls-3" d="M1501.75,713.47c-11.37-8.57-14.56-9.69-25.38-1.19l-19.18,15.08a147.15,147.15,0,0,0-18.68,17C1427,734.28,1406.55,718,1394,702c-37.22-47.35-29.31-94.84,10.7-126.29,47.15-37,98.85-19.58,131.58,22.06,15.72,20,23.48,37,27.57,43.05-8.66,7.47-19,16.22-29.88,27.11l-3.17-2.78c9.75-12,16.73-27,10.47-44.23-3-8.5-7.52-15.88-13.78-23.84-21.18-26.94-55.68-27.56-95.07,3.4-36.33,28.56-59.67,64.4-33,98.28,3.37,4.29,9.8,10.79,15.3,12.75,4.24,1.61,8.3,1.73,18.5-6.29l20.62-16.2c13.06-10.27,13.66-13.71,3.48-32.13l3.26-2.56L1505,710.9Z" transform="translate(0 -91.38)"/><path class="cls-3" d="M430.53,1410.41c11.24,23.94,11.87,47.74-7.56,60.89-14.62,9.9-29.65,9.27-42.7,2.92s-25.36-19.34-35.66-34.57L311.67,1391l3.2-2.16c12.23,12.45,15.05,13.17,32.28,1.51l81.71-55.3c17.43-11.8,16.47-14.07,9.79-30l3.2-2.17,38,56.08c11.25,16.63,14.68,26.86,14.75,37.33-.06,10.26-4.56,19.15-13.78,25.38C462.56,1434,443.16,1422.6,430.53,1410.41ZM362.75,1416c-13.82,9.36-14.76,17.88-7.17,29.1,8.4,12.42,25.65,14.17,47.09-.33,20-13.56,25.75-28.83,10.57-51.26l-5.42-8Zm55.57-25.34c12.2,18,24.28,19.48,40.91,8.23,20.83-14.1,20.65-29.45,12.79-41.07-2.31-3.41-5.28-6.94-7.77-7.59-2.62-.86-5.76,1-11.17,4.63l-40.46,27.39Z" transform="translate(0 -91.38)"/><path class="cls-3" d="M527.57,1636.75l-8.12-7.24c-20.85-20.22-22.93-29.52-20.53-44.56,2.38-15.39,5.8-30.48,10-46.83,2.79-11.12,2-15.7-4.13-21.17l-2.7-2.42-28.34,31.77c-13.52,15.16-13.73,17.57-2.95,32.37l-2.57,2.89-50.9-45.4,2.58-2.89c15.93,9,18,8.91,31.82-6.61l64.89-72.74c13.52-15.16,14.21-18.11,2.78-32.19l2.58-2.89,48.55,43.31c14.8,13.2,22.37,22.88,25.1,34.71,2.68,10.81.05,21.75-8.16,31-16.27,18.23-37.41,14-49.81,9.69-1.64,7.29-6.89,32.43-9.08,45.06-3,17.12-3.84,22.83-4.05,31.06-.2,8.58.88,12.46,5.83,21.08ZM509.41,1513.6c8.66,7.73,15.62,12.64,23.66,12.36,9.24-.19,17-4.57,26.38-15,18.67-20.94,15-37.85,4.68-47-3.79-3.38-6.64-5.28-8.53-5.34-2.07-.22-3.92.4-7.14,4l-42.66,47.82Z" transform="translate(0 -91.38)"/><path class="cls-3" d="M747.81,1579.37c-15.54-5.82-19.38-3.75-33.9,5.5-17.06,10.91-34.7,23.43-51.35,35.11-3.52,2.5-5.29,3.76-7.79,8.45l-14.91,28c-12.4,23.26-11.37,24.91,3.69,36.77l-1.82,3.42-63-33.57,1.82-3.42c18.33,6.76,20.53,5.2,32.59-17.43L626,1618.05a24.77,24.77,0,0,0,3.36-12.47c.47-13.72.51-35.9-.19-62.86-.53-21.12-1-24.37-12.22-33.11l1.82-3.41,58.9,31.41-1.82,3.41c-15.47-4.41-17.56-3.06-17.86,8.3-.44,20.87-.15,43-.55,66.31,15.44-11,37.83-27.25,50.86-37.29,8.95-7,11.21-10.75-4.92-22.64l1.82-3.41L749.63,1576Z" transform="translate(0 -91.38)"/><path class="cls-3" d="M880.33,1696.08c-13.25.44-16.22,1.5-19.07,14l-5.06,22.16a136.86,136.86,0,0,0-3.57,23.25c-14.27-.52-38.61-.37-57-4.57-54.7-12.49-76.8-51.52-66.25-97.74,12.43-54.46,60.12-72.11,108.22-61.13,23.11,5.28,38.7,13,45.19,15-1.89,10.48-4.22,22.85-5.75,37.14l-3.93-.15c.06-14.38-3.71-29.38-18.33-38.17-7.19-4.37-14.75-7.09-23.95-9.19-31.12-7.11-56.47,12.66-66.86,58.17-9.58,42-5.48,81.61,33.66,90.54,5,1.13,13.42,2.07,18.55.26,4-1.31,7-3.6,9.71-15.39l5.44-23.82c3.44-15.09,1.86-17.93-16.3-25.3l.86-3.77,65.31,14.9Z" transform="translate(0 -91.38)"/><path class="cls-4" d="M346.72,1282.85c-46.22-113.93-47.32-230.38-47.31-243.61,0-1,0-2.65,0-4.79.51-71.59,13.92-157,54-254.78" transform="translate(0 -91.38)"/><path class="cls-4" d="M1540.86,769.14c20,39.77,55.45,132.87,55.45,270.1,0,358.13-290.32,648.45-648.45,648.45" transform="translate(0 -91.38)"/></g></g></g></svg>